<mxfile host="8ce2bba8-c3a1-4c5c-8f6c-1757f4fb81ed" modified="2020-09-24T15:07:16.075Z" agent="5.0 (X11; Linux x86_64) AppleWebKit/537.36 (KHTML, like Gecko) Code/1.49.1 Chrome/83.0.4103.122 Electron/9.2.1 Safari/537.36" etag="SkLXcmEsD5uF2ieD43TC" version="13.1.3">
    <diagram id="6hGFLwfOUW9BJ-s0fimq" name="Page-1">
        <mxGraphModel dx="800" dy="780" grid="1" gridSize="10" guides="1" tooltips="1" connect="1" arrows="1" fold="1" page="1" pageScale="1" pageWidth="827" pageHeight="1169" background="#ffffff" math="0" shadow="0">
            <root>
                <mxCell id="0"/>
                <mxCell id="1" parent="0"/>
                <mxCell id="2" value="" style="shape=cylinder;whiteSpace=wrap;html=1;boundedLbl=1;backgroundOutline=1;rotation=90;" parent="1" vertex="1">
                    <mxGeometry x="185" y="210" width="60" height="60" as="geometry"/>
                </mxCell>
                <mxCell id="3" value="Servo" style="shape=cylinder;whiteSpace=wrap;html=1;boundedLbl=1;backgroundOutline=1;rotation=90;" parent="1" vertex="1">
                    <mxGeometry x="220" y="200" width="80" height="80" as="geometry"/>
                </mxCell>
                <mxCell id="4" value="" style="endArrow=none;html=1;fillColor=#e51400;strokeColor=#B20000;strokeWidth=5;" parent="1" edge="1">
                    <mxGeometry width="50" height="50" relative="1" as="geometry">
                        <mxPoint x="290" y="220" as="sourcePoint"/>
                        <mxPoint x="460" y="220" as="targetPoint"/>
                    </mxGeometry>
                </mxCell>
                <mxCell id="7" value="VCC+" style="edgeLabel;html=1;align=center;verticalAlign=middle;resizable=0;points=[];" parent="4" vertex="1" connectable="0">
                    <mxGeometry x="0.7627" y="2" relative="1" as="geometry">
                        <mxPoint x="-40" y="2" as="offset"/>
                    </mxGeometry>
                </mxCell>
                <mxCell id="5" value="" style="endArrow=none;html=1;exitX=0.15;exitY=0.05;exitDx=0;exitDy=0;exitPerimeter=0;fillColor=#647687;strokeColor=#314354;strokeWidth=5;" parent="1" edge="1">
                    <mxGeometry width="50" height="50" relative="1" as="geometry">
                        <mxPoint x="290" y="241" as="sourcePoint"/>
                        <mxPoint x="460" y="241" as="targetPoint"/>
                    </mxGeometry>
                </mxCell>
                <mxCell id="8" value="GND" style="edgeLabel;html=1;align=center;verticalAlign=middle;resizable=0;points=[];" parent="5" vertex="1" connectable="0">
                    <mxGeometry x="0.3476" y="-2" relative="1" as="geometry">
                        <mxPoint x="-1.67" y="-3" as="offset"/>
                    </mxGeometry>
                </mxCell>
                <mxCell id="6" value="" style="endArrow=none;html=1;fillColor=#ffcd28;strokeColor=#d79b00;strokeWidth=5;gradientColor=#ffa500;" parent="1" edge="1">
                    <mxGeometry width="50" height="50" relative="1" as="geometry">
                        <mxPoint x="290" y="260" as="sourcePoint"/>
                        <mxPoint x="460" y="260" as="targetPoint"/>
                    </mxGeometry>
                </mxCell>
                <mxCell id="9" value="SIGNAL" style="edgeLabel;html=1;align=center;verticalAlign=middle;resizable=0;points=[];" parent="6" vertex="1" connectable="0">
                    <mxGeometry x="0.7234" relative="1" as="geometry">
                        <mxPoint x="-32.49" as="offset"/>
                    </mxGeometry>
                </mxCell>
            </root>
        </mxGraphModel>
    </diagram>
</mxfile>